<mxfile host="app.diagrams.net" modified="2023-09-27T13:02:44.485Z" agent="Mozilla/5.0 (Windows NT 10.0; Win64; x64; rv:109.0) Gecko/20100101 Firefox/118.0" etag="6osvOkchkLWkYovTBbOR" version="21.7.5" type="device">
  <diagram name="Page-1" id="D7MXEi1mj_wWHALXOgDf">
    <mxGraphModel dx="1962" dy="2343" grid="1" gridSize="10" guides="1" tooltips="1" connect="1" arrows="1" fold="1" page="1" pageScale="1" pageWidth="827" pageHeight="1169" math="0" shadow="0">
      <root>
        <mxCell id="0" />
        <mxCell id="1" parent="0" />
        <mxCell id="sfAD48e6ac9VHRj_16tp-6" value="Авторизація" style="strokeWidth=1;shadow=0;dashed=0;align=center;html=1;shape=mxgraph.mockup.containers.window;align=left;verticalAlign=top;spacingLeft=8;strokeColor2=#008cff;strokeColor3=#c4c4c4;fontColor=#666666;mainText=;fontSize=17;labelBackgroundColor=none;whiteSpace=wrap;" vertex="1" parent="1">
          <mxGeometry x="340" y="200" width="230" height="380" as="geometry" />
        </mxCell>
        <mxCell id="sfAD48e6ac9VHRj_16tp-7" value="**********" style="rounded=1;whiteSpace=wrap;html=1;" vertex="1" parent="1">
          <mxGeometry x="380" y="410" width="150" height="30" as="geometry" />
        </mxCell>
        <mxCell id="sfAD48e6ac9VHRj_16tp-8" value="email@gmail.com" style="rounded=1;whiteSpace=wrap;html=1;" vertex="1" parent="1">
          <mxGeometry x="380" y="360" width="150" height="30" as="geometry" />
        </mxCell>
        <mxCell id="sfAD48e6ac9VHRj_16tp-9" value="&lt;font style=&quot;font-size: 20px;&quot;&gt;Авторизація&lt;/font&gt;" style="text;html=1;strokeColor=none;fillColor=none;align=center;verticalAlign=middle;whiteSpace=wrap;rounded=0;" vertex="1" parent="1">
          <mxGeometry x="415" y="310" width="80" height="30" as="geometry" />
        </mxCell>
        <mxCell id="sfAD48e6ac9VHRj_16tp-30" style="edgeStyle=orthogonalEdgeStyle;rounded=0;orthogonalLoop=1;jettySize=auto;html=1;" edge="1" parent="1" source="sfAD48e6ac9VHRj_16tp-10" target="sfAD48e6ac9VHRj_16tp-19">
          <mxGeometry relative="1" as="geometry" />
        </mxCell>
        <mxCell id="sfAD48e6ac9VHRj_16tp-10" value="Увійти" style="strokeWidth=1;shadow=0;dashed=0;align=center;html=1;shape=mxgraph.mockup.buttons.button;strokeColor=#666666;fontColor=#ffffff;mainText=;buttonStyle=round;fontSize=17;fontStyle=1;fillColor=#008cff;whiteSpace=wrap;" vertex="1" parent="1">
          <mxGeometry x="380" y="530" width="150" height="30" as="geometry" />
        </mxCell>
        <mxCell id="sfAD48e6ac9VHRj_16tp-12" value="Реєстрація" style="strokeWidth=1;shadow=0;dashed=0;align=center;html=1;shape=mxgraph.mockup.containers.window;align=left;verticalAlign=top;spacingLeft=8;strokeColor2=#008cff;strokeColor3=#c4c4c4;fontColor=#666666;mainText=;fontSize=17;labelBackgroundColor=none;whiteSpace=wrap;" vertex="1" parent="1">
          <mxGeometry x="40" y="200" width="230" height="380" as="geometry" />
        </mxCell>
        <mxCell id="sfAD48e6ac9VHRj_16tp-13" value="**********" style="rounded=1;whiteSpace=wrap;html=1;" vertex="1" parent="1">
          <mxGeometry x="80" y="410" width="150" height="30" as="geometry" />
        </mxCell>
        <mxCell id="sfAD48e6ac9VHRj_16tp-14" value="email@gmail.com" style="rounded=1;whiteSpace=wrap;html=1;" vertex="1" parent="1">
          <mxGeometry x="80" y="360" width="150" height="30" as="geometry" />
        </mxCell>
        <mxCell id="sfAD48e6ac9VHRj_16tp-15" value="&lt;font style=&quot;font-size: 20px;&quot;&gt;Реєстрація&lt;/font&gt;" style="text;html=1;strokeColor=none;fillColor=none;align=center;verticalAlign=middle;whiteSpace=wrap;rounded=0;" vertex="1" parent="1">
          <mxGeometry x="115" y="310" width="80" height="30" as="geometry" />
        </mxCell>
        <mxCell id="sfAD48e6ac9VHRj_16tp-31" style="edgeStyle=orthogonalEdgeStyle;rounded=0;orthogonalLoop=1;jettySize=auto;html=1;" edge="1" parent="1" source="sfAD48e6ac9VHRj_16tp-16" target="sfAD48e6ac9VHRj_16tp-6">
          <mxGeometry relative="1" as="geometry" />
        </mxCell>
        <mxCell id="sfAD48e6ac9VHRj_16tp-16" value="Завершити" style="strokeWidth=1;shadow=0;dashed=0;align=center;html=1;shape=mxgraph.mockup.buttons.button;strokeColor=#666666;fontColor=#ffffff;mainText=;buttonStyle=round;fontSize=17;fontStyle=1;fillColor=#008cff;whiteSpace=wrap;" vertex="1" parent="1">
          <mxGeometry x="80" y="530" width="150" height="30" as="geometry" />
        </mxCell>
        <mxCell id="sfAD48e6ac9VHRj_16tp-19" value="Перелік послуг" style="strokeWidth=1;shadow=0;dashed=0;align=center;html=1;shape=mxgraph.mockup.containers.window;align=left;verticalAlign=top;spacingLeft=8;strokeColor2=#008cff;strokeColor3=#c4c4c4;fontColor=#666666;mainText=;fontSize=17;labelBackgroundColor=none;whiteSpace=wrap;" vertex="1" parent="1">
          <mxGeometry x="630" y="200" width="230" height="380" as="geometry" />
        </mxCell>
        <mxCell id="sfAD48e6ac9VHRj_16tp-39" style="edgeStyle=orthogonalEdgeStyle;rounded=0;orthogonalLoop=1;jettySize=auto;html=1;" edge="1" parent="1" source="sfAD48e6ac9VHRj_16tp-32" target="sfAD48e6ac9VHRj_16tp-34">
          <mxGeometry relative="1" as="geometry" />
        </mxCell>
        <mxCell id="sfAD48e6ac9VHRj_16tp-32" value="&lt;font style=&quot;font-size: 16px;&quot;&gt;Автоматично регулювати освітленність&lt;/font&gt;" style="rounded=1;whiteSpace=wrap;html=1;" vertex="1" parent="1">
          <mxGeometry x="650" y="260" width="190" height="40" as="geometry" />
        </mxCell>
        <mxCell id="sfAD48e6ac9VHRj_16tp-41" style="edgeStyle=orthogonalEdgeStyle;rounded=0;orthogonalLoop=1;jettySize=auto;html=1;exitX=0.5;exitY=1;exitDx=0;exitDy=0;" edge="1" parent="1" source="sfAD48e6ac9VHRj_16tp-33" target="sfAD48e6ac9VHRj_16tp-35">
          <mxGeometry relative="1" as="geometry" />
        </mxCell>
        <mxCell id="sfAD48e6ac9VHRj_16tp-33" value="&lt;font style=&quot;font-size: 16px;&quot;&gt;Генерувати звіти про освітленість&lt;/font&gt;" style="rounded=1;whiteSpace=wrap;html=1;" vertex="1" parent="1">
          <mxGeometry x="650" y="320" width="190" height="40" as="geometry" />
        </mxCell>
        <mxCell id="sfAD48e6ac9VHRj_16tp-34" value="Вибір параметрів" style="strokeWidth=1;shadow=0;dashed=0;align=center;html=1;shape=mxgraph.mockup.containers.window;align=left;verticalAlign=top;spacingLeft=8;strokeColor2=#008cff;strokeColor3=#c4c4c4;fontColor=#666666;mainText=;fontSize=17;labelBackgroundColor=none;whiteSpace=wrap;" vertex="1" parent="1">
          <mxGeometry x="940" y="-30" width="230" height="380" as="geometry" />
        </mxCell>
        <mxCell id="sfAD48e6ac9VHRj_16tp-35" value="Звіт" style="strokeWidth=1;shadow=0;dashed=0;align=center;html=1;shape=mxgraph.mockup.containers.window;align=left;verticalAlign=top;spacingLeft=8;strokeColor2=#008cff;strokeColor3=#c4c4c4;fontColor=#666666;mainText=;fontSize=17;labelBackgroundColor=none;whiteSpace=wrap;" vertex="1" parent="1">
          <mxGeometry x="940" y="440" width="230" height="380" as="geometry" />
        </mxCell>
        <mxCell id="sfAD48e6ac9VHRj_16tp-53" style="edgeStyle=orthogonalEdgeStyle;rounded=0;orthogonalLoop=1;jettySize=auto;html=1;" edge="1" parent="1" source="sfAD48e6ac9VHRj_16tp-47" target="sfAD48e6ac9VHRj_16tp-48">
          <mxGeometry relative="1" as="geometry" />
        </mxCell>
        <mxCell id="sfAD48e6ac9VHRj_16tp-47" value="Завершити" style="strokeWidth=1;shadow=0;dashed=0;align=center;html=1;shape=mxgraph.mockup.buttons.button;strokeColor=#666666;fontColor=#ffffff;mainText=;buttonStyle=round;fontSize=17;fontStyle=1;fillColor=#008cff;whiteSpace=wrap;" vertex="1" parent="1">
          <mxGeometry x="980" y="310" width="150" height="30" as="geometry" />
        </mxCell>
        <mxCell id="sfAD48e6ac9VHRj_16tp-48" value="Вибір параметрів" style="strokeWidth=1;shadow=0;dashed=0;align=center;html=1;shape=mxgraph.mockup.containers.window;align=left;verticalAlign=top;spacingLeft=8;strokeColor2=#008cff;strokeColor3=#c4c4c4;fontColor=#666666;mainText=;fontSize=17;labelBackgroundColor=none;whiteSpace=wrap;" vertex="1" parent="1">
          <mxGeometry x="1250" y="-30" width="230" height="380" as="geometry" />
        </mxCell>
        <mxCell id="sfAD48e6ac9VHRj_16tp-49" value="Ваші параметри успішно встановлено" style="strokeWidth=1;shadow=0;dashed=0;align=center;html=1;shape=mxgraph.mockup.containers.rrect;rSize=0;strokeColor=#666666;fontColor=#666666;fontSize=17;verticalAlign=top;whiteSpace=wrap;fillColor=#ffffff;spacingTop=32;" vertex="1" parent="1">
          <mxGeometry x="1275" y="120" width="180" height="120" as="geometry" />
        </mxCell>
        <mxCell id="sfAD48e6ac9VHRj_16tp-50" value="Завершено" style="strokeWidth=1;shadow=0;dashed=0;align=center;html=1;shape=mxgraph.mockup.containers.rrect;rSize=0;fontSize=17;fontColor=#666666;strokeColor=#666666;align=left;spacingLeft=8;fillColor=#ffffff;resizeWidth=1;whiteSpace=wrap;" vertex="1" parent="sfAD48e6ac9VHRj_16tp-49">
          <mxGeometry width="180" height="30" relative="1" as="geometry" />
        </mxCell>
        <mxCell id="sfAD48e6ac9VHRj_16tp-51" value="" style="shape=ellipse;strokeColor=#008cff;resizable=0;fillColor=none;html=1;" vertex="1" parent="sfAD48e6ac9VHRj_16tp-50">
          <mxGeometry x="1" y="0.5" width="20" height="20" relative="1" as="geometry">
            <mxPoint x="-25" y="-10" as="offset" />
          </mxGeometry>
        </mxCell>
        <mxCell id="sfAD48e6ac9VHRj_16tp-52" value="OK" style="strokeWidth=1;shadow=0;dashed=0;align=center;html=1;shape=mxgraph.mockup.containers.rrect;rSize=0;fontSize=16;fontColor=#666666;strokeColor=#c4c4c4;resizable=0;whiteSpace=wrap;fillColor=#ffffff;" vertex="1" parent="sfAD48e6ac9VHRj_16tp-49">
          <mxGeometry x="0.5" y="1" width="120" height="25" relative="1" as="geometry">
            <mxPoint x="-60" y="-33" as="offset" />
          </mxGeometry>
        </mxCell>
        <mxCell id="sfAD48e6ac9VHRj_16tp-64" value="" style="strokeWidth=1;shadow=0;dashed=0;align=center;html=1;shape=mxgraph.mockup.forms.rrect;rSize=0;strokeColor=#999999;fillColor=#ffffff;recursiveResize=0;" vertex="1" parent="1">
          <mxGeometry x="960" y="180" width="190" height="120" as="geometry" />
        </mxCell>
        <mxCell id="sfAD48e6ac9VHRj_16tp-65" value="Setting 1" style="shape=ellipse;rSize=0;fillColor=#eeeeee;strokeColor=#999999;gradientColor=#cccccc;html=1;align=left;spacingLeft=4;fontSize=17;fontColor=#666666;labelPosition=right;" vertex="1" parent="sfAD48e6ac9VHRj_16tp-64">
          <mxGeometry x="8" y="7.5" width="15" height="15" as="geometry" />
        </mxCell>
        <mxCell id="sfAD48e6ac9VHRj_16tp-66" value="Setting 2" style="shape=ellipse;rSize=0;fillColor=#eeeeee;strokeColor=#999999;gradientColor=#cccccc;html=1;align=left;spacingLeft=4;fontSize=17;fontColor=#666666;labelPosition=right;" vertex="1" parent="sfAD48e6ac9VHRj_16tp-64">
          <mxGeometry x="8" y="37.5" width="15" height="15" as="geometry" />
        </mxCell>
        <mxCell id="sfAD48e6ac9VHRj_16tp-67" value="Setting 3" style="shape=ellipse;rSize=0;fillColor=#aaaaaa;strokeColor=#444444;gradientColor=#666666;html=1;align=left;spacingLeft=4;fontSize=17;fontColor=#008cff;labelPosition=right;" vertex="1" parent="sfAD48e6ac9VHRj_16tp-64">
          <mxGeometry x="8" y="67.5" width="15" height="15" as="geometry" />
        </mxCell>
        <mxCell id="sfAD48e6ac9VHRj_16tp-68" value="" style="shape=ellipse;fillColor=#444444;strokeColor=none;html=1;" vertex="1" parent="sfAD48e6ac9VHRj_16tp-67">
          <mxGeometry x="3" y="3" width="9" height="9" as="geometry" />
        </mxCell>
        <mxCell id="sfAD48e6ac9VHRj_16tp-69" value="Setting 4" style="shape=ellipse;rSize=0;fillColor=#eeeeee;strokeColor=#999999;gradientColor=#cccccc;html=1;align=left;spacingLeft=4;fontSize=17;fontColor=#666666;labelPosition=right;" vertex="1" parent="sfAD48e6ac9VHRj_16tp-64">
          <mxGeometry x="8" y="97.5" width="15" height="15" as="geometry" />
        </mxCell>
        <mxCell id="sfAD48e6ac9VHRj_16tp-70" value="ON" style="strokeWidth=1;shadow=0;dashed=0;align=center;html=1;shape=mxgraph.mockup.buttons.onOffButton;gradientColor=none;strokeColor=#999999;buttonState=on;fillColor2=#008cff;fontColor=#ffffff;fontSize=17;mainText=;spacingRight=40;fontStyle=1;whiteSpace=wrap;" vertex="1" parent="1">
          <mxGeometry x="1050" y="10" width="100" height="30" as="geometry" />
        </mxCell>
        <mxCell id="sfAD48e6ac9VHRj_16tp-71" value="&lt;font style=&quot;font-size: 18px;&quot;&gt;Опція 1&lt;/font&gt;" style="text;html=1;strokeColor=none;fillColor=none;align=center;verticalAlign=middle;whiteSpace=wrap;rounded=0;" vertex="1" parent="1">
          <mxGeometry x="950" y="10" width="90" height="30" as="geometry" />
        </mxCell>
        <mxCell id="sfAD48e6ac9VHRj_16tp-72" value="ON" style="strokeWidth=1;shadow=0;dashed=0;align=center;html=1;shape=mxgraph.mockup.buttons.onOffButton;gradientColor=none;strokeColor=#999999;buttonState=on;fillColor2=#008cff;fontColor=#ffffff;fontSize=17;mainText=;spacingRight=40;fontStyle=1;whiteSpace=wrap;" vertex="1" parent="1">
          <mxGeometry x="1050" y="50" width="100" height="30" as="geometry" />
        </mxCell>
        <mxCell id="sfAD48e6ac9VHRj_16tp-73" value="&lt;font style=&quot;font-size: 18px;&quot;&gt;Опція 2&lt;br&gt;&lt;/font&gt;" style="text;html=1;strokeColor=none;fillColor=none;align=center;verticalAlign=middle;whiteSpace=wrap;rounded=0;" vertex="1" parent="1">
          <mxGeometry x="950" y="50" width="90" height="30" as="geometry" />
        </mxCell>
        <mxCell id="sfAD48e6ac9VHRj_16tp-74" value="ON" style="strokeWidth=1;shadow=0;dashed=0;align=center;html=1;shape=mxgraph.mockup.buttons.onOffButton;gradientColor=none;strokeColor=#999999;buttonState=on;fillColor2=#008cff;fontColor=#ffffff;fontSize=17;mainText=;spacingRight=40;fontStyle=1;whiteSpace=wrap;" vertex="1" parent="1">
          <mxGeometry x="1050" y="90" width="100" height="30" as="geometry" />
        </mxCell>
        <mxCell id="sfAD48e6ac9VHRj_16tp-75" value="&lt;font style=&quot;font-size: 18px;&quot;&gt;Опція 3&lt;br&gt;&lt;/font&gt;" style="text;html=1;strokeColor=none;fillColor=none;align=center;verticalAlign=middle;whiteSpace=wrap;rounded=0;" vertex="1" parent="1">
          <mxGeometry x="950" y="90" width="90" height="30" as="geometry" />
        </mxCell>
        <mxCell id="sfAD48e6ac9VHRj_16tp-76" value="&lt;div&gt;&lt;font style=&quot;font-size: 18px;&quot;&gt;Опція 4&lt;/font&gt;&lt;/div&gt;" style="text;html=1;strokeColor=none;fillColor=none;align=center;verticalAlign=middle;whiteSpace=wrap;rounded=0;" vertex="1" parent="1">
          <mxGeometry x="950" y="130" width="90" height="30" as="geometry" />
        </mxCell>
        <mxCell id="sfAD48e6ac9VHRj_16tp-77" value="ON" style="strokeWidth=1;shadow=0;dashed=0;align=center;html=1;shape=mxgraph.mockup.buttons.onOffButton;gradientColor=none;strokeColor=#999999;buttonState=on;fillColor2=#008cff;fontColor=#ffffff;fontSize=17;mainText=;spacingRight=40;fontStyle=1;whiteSpace=wrap;" vertex="1" parent="1">
          <mxGeometry x="1050" y="130" width="100" height="30" as="geometry" />
        </mxCell>
        <mxCell id="sfAD48e6ac9VHRj_16tp-78" value="&lt;h1&gt;Освітленість&lt;br&gt;&lt;/h1&gt;&lt;p&gt;Lorem ipsum dolor sit amet, consectetur adipisicing elit, sed do eiusmod tempor incididunt ut labore et dolore magna aliqua ..&lt;br&gt;&lt;/p&gt;" style="text;html=1;strokeColor=none;fillColor=none;spacing=5;spacingTop=-20;whiteSpace=wrap;overflow=hidden;rounded=0;" vertex="1" parent="1">
          <mxGeometry x="960" y="485" width="190" height="115" as="geometry" />
        </mxCell>
        <mxCell id="sfAD48e6ac9VHRj_16tp-79" value="Завершити" style="strokeWidth=1;shadow=0;dashed=0;align=center;html=1;shape=mxgraph.mockup.buttons.button;strokeColor=#666666;fontColor=#ffffff;mainText=;buttonStyle=round;fontSize=17;fontStyle=1;fillColor=#008cff;whiteSpace=wrap;" vertex="1" parent="1">
          <mxGeometry x="980" y="780" width="150" height="30" as="geometry" />
        </mxCell>
      </root>
    </mxGraphModel>
  </diagram>
</mxfile>
